<svg xmlns="http://www.w3.org/2000/svg" width="1920" height="269.014" viewBox="0 0 1920 269.014">
  <g id="Group_7" data-name="Group 7" transform="translate(87 -99)">
    <path id="wave"
      d="M0,124.629H64c64,0,192,0,320,31.157s256,93.472,384,109.051,256-15.579,384-41.576c128-25.607,256-47.028,384-41.478,128,5.16,256,36.318,320,51.9l64,15.579V0H0Z"
      transform="translate(-87 99)" fill="#7EBDC2" />
    <path id="wave_2" data-name="wave 2"
      d="M0,239.349l53.333,5.663c53.333,6.091,160,16.776,266.667-5.663S533.333,159.21,640,159.53c106.667-.321,213.333,57.38,320,62.722s213.333-39.535,320-62.722c106.667-22.76,213.333-22.76,320-5.663s213.333,51.289,266.667,68.385l53.333,17.1V0H0Z"
      transform="translate(-87 99)" fill="#3C6997" />
  </g>
</svg>